<mxfile host="app.diagrams.net" agent="Mozilla/5.0 (Windows NT 10.0; Win64; x64) AppleWebKit/537.36 (KHTML, like Gecko) Chrome/131.0.0.0 Safari/537.36" version="25.0.3">
  <diagram name="第 1 页" id="BmtrHXOaPfJpMW9g69Y2">
    <mxGraphModel dx="958" dy="605" grid="1" gridSize="10" guides="1" tooltips="1" connect="1" arrows="1" fold="1" page="1" pageScale="1" pageWidth="827" pageHeight="1169" math="0" shadow="0">
      <root>
        <mxCell id="0" />
        <mxCell id="1" parent="0" />
        <mxCell id="-yPmq9s3Uo_zZ_bbpHA7-3" value="" style="edgeStyle=orthogonalEdgeStyle;rounded=0;orthogonalLoop=1;jettySize=auto;html=1;" edge="1" parent="1" source="3HEjkA3OWnDrw-g19RdO-1" target="-yPmq9s3Uo_zZ_bbpHA7-2">
          <mxGeometry relative="1" as="geometry" />
        </mxCell>
        <mxCell id="3HEjkA3OWnDrw-g19RdO-1" value="任务状态为停用" style="rounded=0;whiteSpace=wrap;html=1;" parent="1" vertex="1">
          <mxGeometry x="160" y="80" width="120" height="40" as="geometry" />
        </mxCell>
        <mxCell id="-yPmq9s3Uo_zZ_bbpHA7-1" value="启动流程" style="text;html=1;align=center;verticalAlign=middle;whiteSpace=wrap;rounded=0;" vertex="1" parent="1">
          <mxGeometry x="30" y="20" width="60" height="30" as="geometry" />
        </mxCell>
        <mxCell id="-yPmq9s3Uo_zZ_bbpHA7-5" value="" style="edgeStyle=orthogonalEdgeStyle;rounded=0;orthogonalLoop=1;jettySize=auto;html=1;entryX=0.5;entryY=0;entryDx=0;entryDy=0;" edge="1" parent="1" source="-yPmq9s3Uo_zZ_bbpHA7-2" target="-yPmq9s3Uo_zZ_bbpHA7-7">
          <mxGeometry relative="1" as="geometry">
            <mxPoint x="370" y="270" as="targetPoint" />
            <Array as="points">
              <mxPoint x="391" y="220" />
              <mxPoint x="391" y="280" />
            </Array>
          </mxGeometry>
        </mxCell>
        <mxCell id="-yPmq9s3Uo_zZ_bbpHA7-6" value="流启用" style="edgeLabel;html=1;align=center;verticalAlign=middle;resizable=0;points=[];" vertex="1" connectable="0" parent="-yPmq9s3Uo_zZ_bbpHA7-5">
          <mxGeometry x="-0.2168" y="1" relative="1" as="geometry">
            <mxPoint as="offset" />
          </mxGeometry>
        </mxCell>
        <mxCell id="-yPmq9s3Uo_zZ_bbpHA7-9" style="edgeStyle=orthogonalEdgeStyle;rounded=0;orthogonalLoop=1;jettySize=auto;html=1;exitX=0;exitY=0.5;exitDx=0;exitDy=0;" edge="1" parent="1" source="-yPmq9s3Uo_zZ_bbpHA7-2" target="-yPmq9s3Uo_zZ_bbpHA7-8">
          <mxGeometry relative="1" as="geometry" />
        </mxCell>
        <mxCell id="-yPmq9s3Uo_zZ_bbpHA7-10" value="人工启用" style="edgeLabel;html=1;align=center;verticalAlign=middle;resizable=0;points=[];" vertex="1" connectable="0" parent="-yPmq9s3Uo_zZ_bbpHA7-9">
          <mxGeometry x="-0.0453" y="1" relative="1" as="geometry">
            <mxPoint as="offset" />
          </mxGeometry>
        </mxCell>
        <mxCell id="-yPmq9s3Uo_zZ_bbpHA7-2" value="启用" style="rhombus;whiteSpace=wrap;html=1;rounded=0;" vertex="1" parent="1">
          <mxGeometry x="180" y="180" width="80" height="80" as="geometry" />
        </mxCell>
        <mxCell id="-yPmq9s3Uo_zZ_bbpHA7-7" value="任务状态启用" style="rhombus;whiteSpace=wrap;html=1;rounded=0;" vertex="1" parent="1">
          <mxGeometry x="310" y="285" width="80" height="80" as="geometry" />
        </mxCell>
        <mxCell id="-yPmq9s3Uo_zZ_bbpHA7-8" value="任务状态启用" style="rhombus;whiteSpace=wrap;html=1;rounded=0;" vertex="1" parent="1">
          <mxGeometry x="20" y="290" width="80" height="80" as="geometry" />
        </mxCell>
        <mxCell id="-yPmq9s3Uo_zZ_bbpHA7-20" value="" style="edgeStyle=orthogonalEdgeStyle;rounded=0;orthogonalLoop=1;jettySize=auto;html=1;" edge="1" parent="1" source="-yPmq9s3Uo_zZ_bbpHA7-21" target="-yPmq9s3Uo_zZ_bbpHA7-26">
          <mxGeometry relative="1" as="geometry" />
        </mxCell>
        <mxCell id="-yPmq9s3Uo_zZ_bbpHA7-21" value="任务状态为启用" style="rounded=0;whiteSpace=wrap;html=1;" vertex="1" parent="1">
          <mxGeometry x="610" y="75" width="120" height="40" as="geometry" />
        </mxCell>
        <mxCell id="-yPmq9s3Uo_zZ_bbpHA7-22" value="" style="edgeStyle=orthogonalEdgeStyle;rounded=0;orthogonalLoop=1;jettySize=auto;html=1;entryX=0.5;entryY=0;entryDx=0;entryDy=0;" edge="1" parent="1" source="-yPmq9s3Uo_zZ_bbpHA7-26" target="-yPmq9s3Uo_zZ_bbpHA7-27">
          <mxGeometry relative="1" as="geometry">
            <mxPoint x="820" y="265" as="targetPoint" />
            <Array as="points">
              <mxPoint x="841" y="215" />
              <mxPoint x="841" y="275" />
            </Array>
          </mxGeometry>
        </mxCell>
        <mxCell id="-yPmq9s3Uo_zZ_bbpHA7-23" value="流启用" style="edgeLabel;html=1;align=center;verticalAlign=middle;resizable=0;points=[];" vertex="1" connectable="0" parent="-yPmq9s3Uo_zZ_bbpHA7-22">
          <mxGeometry x="-0.2168" y="1" relative="1" as="geometry">
            <mxPoint as="offset" />
          </mxGeometry>
        </mxCell>
        <mxCell id="-yPmq9s3Uo_zZ_bbpHA7-24" style="edgeStyle=orthogonalEdgeStyle;rounded=0;orthogonalLoop=1;jettySize=auto;html=1;exitX=0;exitY=0.5;exitDx=0;exitDy=0;" edge="1" parent="1" source="-yPmq9s3Uo_zZ_bbpHA7-26" target="-yPmq9s3Uo_zZ_bbpHA7-28">
          <mxGeometry relative="1" as="geometry" />
        </mxCell>
        <mxCell id="-yPmq9s3Uo_zZ_bbpHA7-25" value="人工启用" style="edgeLabel;html=1;align=center;verticalAlign=middle;resizable=0;points=[];" vertex="1" connectable="0" parent="-yPmq9s3Uo_zZ_bbpHA7-24">
          <mxGeometry x="-0.0453" y="1" relative="1" as="geometry">
            <mxPoint as="offset" />
          </mxGeometry>
        </mxCell>
        <mxCell id="-yPmq9s3Uo_zZ_bbpHA7-26" value="停用" style="rhombus;whiteSpace=wrap;html=1;rounded=0;" vertex="1" parent="1">
          <mxGeometry x="630" y="175" width="80" height="80" as="geometry" />
        </mxCell>
        <mxCell id="-yPmq9s3Uo_zZ_bbpHA7-27" value="任务状态启用" style="rhombus;whiteSpace=wrap;html=1;rounded=0;" vertex="1" parent="1">
          <mxGeometry x="747" y="285" width="80" height="80" as="geometry" />
        </mxCell>
        <mxCell id="-yPmq9s3Uo_zZ_bbpHA7-28" value="任务状态启用" style="rhombus;whiteSpace=wrap;html=1;rounded=0;" vertex="1" parent="1">
          <mxGeometry x="470" y="285" width="80" height="80" as="geometry" />
        </mxCell>
      </root>
    </mxGraphModel>
  </diagram>
</mxfile>
